<svg width="232" height="62" viewBox="0 0 232 62" fill="none" xmlns="http://www.w3.org/2000/svg">
<path d="M97.78 15.864C99.436 15.864 100.864 16.044 102.064 16.404C103.288 16.764 104.32 17.232 105.16 17.808C105.592 18.096 105.832 18.456 105.88 18.888C105.928 19.296 105.82 19.704 105.556 20.112C105.292 20.472 104.968 20.712 104.584 20.832C104.2 20.952 103.804 20.88 103.396 20.616C102.58 20.136 101.74 19.776 100.876 19.536C100.012 19.296 98.956 19.176 97.708 19.176C95.404 19.176 93.664 19.932 92.488 21.444C91.336 22.932 90.76 25.284 90.76 28.5V29.616C90.76 32.784 91.324 35.124 92.452 36.636C93.58 38.148 95.344 38.904 97.744 38.904C99.064 38.904 100.228 38.748 101.236 38.436C102.244 38.1 103.168 37.62 104.008 36.996C104.392 36.732 104.788 36.636 105.196 36.708C105.628 36.756 105.988 36.984 106.276 37.392C106.564 37.8 106.684 38.244 106.636 38.724C106.588 39.18 106.336 39.576 105.88 39.912C104.872 40.656 103.684 41.232 102.316 41.64C100.948 42.048 99.4 42.252 97.672 42.252C94.264 42.252 91.648 41.244 89.824 39.228C88.024 37.212 87.124 34.104 87.124 29.904V28.212C87.124 24.012 88.036 20.904 89.86 18.888C91.708 16.872 94.348 15.864 97.78 15.864ZM118.285 22.524C119.533 22.524 120.661 22.716 121.669 23.1C122.701 23.484 123.577 24.048 124.297 24.792C125.041 25.512 125.605 26.4 125.989 27.456C126.397 28.512 126.601 29.712 126.601 31.056V31.128C126.601 32.04 126.409 32.688 126.025 33.072C125.641 33.432 124.981 33.612 124.045 33.612H113.173V33.756C113.173 35.484 113.629 36.816 114.541 37.752C115.453 38.688 116.773 39.156 118.501 39.156C119.581 39.156 120.517 39.06 121.309 38.868C122.125 38.676 122.917 38.376 123.685 37.968C124.093 37.776 124.465 37.74 124.801 37.86C125.161 37.956 125.437 38.208 125.629 38.616C125.821 39.024 125.869 39.42 125.773 39.804C125.677 40.164 125.449 40.44 125.089 40.632C124.225 41.112 123.241 41.484 122.137 41.748C121.057 42.012 119.797 42.144 118.357 42.144C115.645 42.144 113.521 41.388 111.985 39.876C110.449 38.34 109.681 36.036 109.681 32.964V31.74C109.681 28.692 110.449 26.4 111.985 24.864C113.545 23.304 115.645 22.524 118.285 22.524ZM118.213 25.512C116.581 25.512 115.333 25.98 114.469 26.916C113.605 27.828 113.173 29.088 113.173 30.696V30.912H123.181V30.588C123.181 29.028 122.773 27.792 121.957 26.88C121.141 25.968 119.893 25.512 118.213 25.512ZM132.765 15.18C133.245 15.18 133.665 15.3 134.025 15.54C134.385 15.78 134.565 16.164 134.565 16.692V40.524C134.565 41.052 134.385 41.436 134.025 41.676C133.665 41.916 133.245 42.036 132.765 42.036C132.309 42.036 131.901 41.916 131.541 41.676C131.181 41.436 131.001 41.052 131.001 40.524V16.692C131.001 16.164 131.181 15.78 131.541 15.54C131.901 15.3 132.309 15.18 132.765 15.18ZM141.611 22.776C142.067 22.776 142.475 22.896 142.835 23.136C143.195 23.376 143.375 23.748 143.375 24.252V34.368C143.375 36.096 143.747 37.308 144.491 38.004C145.235 38.7 146.255 39.048 147.551 39.048C148.223 39.048 148.847 38.94 149.423 38.724C150.023 38.484 150.551 38.16 151.007 37.752C151.463 37.344 151.823 36.852 152.087 36.276C152.351 35.7 152.483 35.052 152.483 34.332V24.252C152.483 23.748 152.651 23.376 152.987 23.136C153.347 22.896 153.767 22.776 154.247 22.776C154.703 22.776 155.111 22.896 155.471 23.136C155.831 23.376 156.011 23.748 156.011 24.252V40.596C156.011 41.1 155.831 41.472 155.471 41.712C155.135 41.928 154.751 42.036 154.319 42.036C153.887 42.036 153.491 41.928 153.131 41.712C152.795 41.472 152.627 41.1 152.627 40.596V39.264H152.555C152.099 40.104 151.319 40.8 150.215 41.352C149.135 41.904 147.947 42.18 146.651 42.18C144.491 42.18 142.811 41.58 141.611 40.38C140.435 39.156 139.847 37.416 139.847 35.16V24.252C139.847 23.748 140.015 23.376 140.351 23.136C140.711 22.896 141.131 22.776 141.611 22.776ZM160.635 22.956C161.067 22.788 161.499 22.752 161.931 22.848C162.387 22.944 162.711 23.268 162.903 23.82L168.087 38.112H168.123L173.235 23.82C173.427 23.268 173.739 22.944 174.171 22.848C174.603 22.752 175.035 22.788 175.467 22.956C175.875 23.1 176.187 23.352 176.403 23.712C176.643 24.072 176.667 24.516 176.475 25.044L170.571 40.2C170.307 40.896 169.947 41.376 169.491 41.64C169.059 41.904 168.567 42.036 168.015 42.036C167.463 42.036 166.971 41.916 166.539 41.676C166.107 41.412 165.759 40.932 165.495 40.236L159.555 25.044C159.363 24.516 159.387 24.072 159.627 23.712C159.867 23.352 160.203 23.1 160.635 22.956ZM187.614 22.524C188.862 22.524 189.99 22.716 190.998 23.1C192.03 23.484 192.906 24.048 193.626 24.792C194.37 25.512 194.934 26.4 195.318 27.456C195.726 28.512 195.93 29.712 195.93 31.056V31.128C195.93 32.04 195.738 32.688 195.354 33.072C194.97 33.432 194.31 33.612 193.374 33.612H182.502V33.756C182.502 35.484 182.958 36.816 183.87 37.752C184.782 38.688 186.102 39.156 187.83 39.156C188.91 39.156 189.846 39.06 190.638 38.868C191.454 38.676 192.246 38.376 193.014 37.968C193.422 37.776 193.794 37.74 194.13 37.86C194.49 37.956 194.766 38.208 194.958 38.616C195.15 39.024 195.198 39.42 195.102 39.804C195.006 40.164 194.778 40.44 194.418 40.632C193.554 41.112 192.57 41.484 191.466 41.748C190.386 42.012 189.126 42.144 187.686 42.144C184.974 42.144 182.85 41.388 181.314 39.876C179.778 38.34 179.01 36.036 179.01 32.964V31.74C179.01 28.692 179.778 26.4 181.314 24.864C182.874 23.304 184.974 22.524 187.614 22.524ZM187.542 25.512C185.91 25.512 184.662 25.98 183.798 26.916C182.934 27.828 182.502 29.088 182.502 30.696V30.912H192.51V30.588C192.51 29.028 192.102 27.792 191.286 26.88C190.47 25.968 189.222 25.512 187.542 25.512ZM207.458 22.524C208.586 22.524 209.606 22.668 210.518 22.956C211.454 23.244 212.246 23.664 212.894 24.216C213.566 24.744 214.082 25.404 214.442 26.196C214.802 26.964 214.982 27.84 214.982 28.824V40.668C214.982 41.148 214.814 41.496 214.478 41.712C214.142 41.928 213.77 42.036 213.362 42.036C212.954 42.036 212.582 41.928 212.246 41.712C211.91 41.496 211.742 41.148 211.742 40.668V39.3H211.706C211.514 39.708 211.238 40.08 210.878 40.416C210.518 40.752 210.098 41.04 209.618 41.28C209.138 41.544 208.574 41.76 207.926 41.928C207.278 42.072 206.594 42.144 205.874 42.144C203.786 42.144 202.166 41.652 201.014 40.668C199.862 39.684 199.286 38.304 199.286 36.528V36.06C199.286 35.268 199.406 34.536 199.646 33.864C199.91 33.192 200.318 32.604 200.87 32.1C201.446 31.596 202.19 31.212 203.102 30.948C204.014 30.66 205.13 30.516 206.45 30.516H211.454V29.616C211.454 28.224 211.13 27.216 210.482 26.592C209.834 25.944 208.802 25.62 207.386 25.62C205.682 25.62 204.074 26.1 202.562 27.06C202.178 27.3 201.806 27.36 201.446 27.24C201.086 27.12 200.786 26.88 200.546 26.52C200.33 26.16 200.246 25.788 200.294 25.404C200.342 25.02 200.558 24.696 200.942 24.432C201.758 23.88 202.73 23.424 203.858 23.064C204.986 22.704 206.186 22.524 207.458 22.524ZM206.558 33.288C205.142 33.288 204.146 33.564 203.57 34.116C203.018 34.668 202.742 35.376 202.742 36.24V36.384C202.742 37.272 203.03 37.956 203.606 38.436C204.182 38.916 205.034 39.156 206.162 39.156C207.554 39.156 208.694 38.916 209.582 38.436C210.206 38.076 210.674 37.632 210.986 37.104C211.322 36.576 211.49 35.916 211.49 35.124V33.288H206.558ZM223.137 17.736C223.617 17.736 224.037 17.856 224.397 18.096C224.757 18.336 224.937 18.72 224.937 19.248V22.956H229.113C229.521 22.956 229.821 23.1 230.013 23.388C230.229 23.676 230.337 24.024 230.337 24.432C230.337 24.84 230.229 25.188 230.013 25.476C229.821 25.74 229.521 25.872 229.113 25.872H224.937V36.168C224.937 37.248 225.105 38.016 225.441 38.472C225.777 38.904 226.341 39.12 227.133 39.12C227.733 39.12 228.321 39.012 228.897 38.796C229.233 38.676 229.557 38.688 229.869 38.832C230.181 38.952 230.409 39.24 230.553 39.696C230.697 40.104 230.697 40.476 230.553 40.812C230.433 41.148 230.193 41.4 229.833 41.568C228.993 41.952 228.009 42.144 226.881 42.144C224.937 42.144 223.533 41.676 222.669 40.74C221.805 39.804 221.373 38.28 221.373 36.168V25.872H219.213C218.805 25.872 218.493 25.74 218.277 25.476C218.085 25.188 217.989 24.84 217.989 24.432C217.989 24.024 218.085 23.676 218.277 23.388C218.493 23.1 218.805 22.956 219.213 22.956H221.373V19.248C221.373 18.72 221.553 18.336 221.913 18.096C222.273 17.856 222.681 17.736 223.137 17.736Z" fill="black"/>
<path d="M49.2146 8.62604C49.2146 8.62604 53.0671 4.50866 57.9135 6.9861C62.3156 9.23556 64.2007 15.7295 59.1435 21.0134C53.7764 26.6246 42.7074 28.8977 42.7074 28.8977C42.7074 28.8977 36.4572 22.4307 34.4281 15.606C32.1643 8.00618 36.0404 1.21088 42.4367 1.97823C46.8507 2.50753 48.7746 6.15203 49.2146 8.62604Z" fill="#FF7B54" stroke="#FF7B54" stroke-miterlimit="10" stroke-linecap="square" stroke-linejoin="round"/>
<path d="M14.5129 17.4642L28.5498 26.122L42.5867 34.7798L28.069 42.6072L13.5561 50.432L14.0321 33.9494L14.5129 17.4642Z" fill="#FFB26B" stroke="#FFB26B" stroke-miterlimit="10" stroke-linecap="round" stroke-linejoin="round"/>
<path d="M72.5058 48.463C69.0205 55.4687 60.5158 58.3226 53.5102 54.8373C46.5045 51.352 43.6506 42.8473 47.1359 35.8416C50.6212 28.8359 59.1259 25.9821 66.1316 29.4674C73.1373 32.9527 75.9911 41.4573 72.5058 48.463Z" fill="#FFD56F" stroke="#FFD56F"/>
</svg>
